<svg xmlns="http://www.w3.org/2000/svg" width="640" height="360" viewBox="0 0 640 360"><title>base_chain_row timeline</title><desc>Z height and yarn feed plotted across emitted commands.</desc><rect x="56" y="36" width="564" height="276" fill="#f6f8fb" stroke="#cdd5e0" stroke-width="1"/><line x1="56" y1="180.0" x2="620" y2="180.0" stroke="#cdd5e0" stroke-dasharray="4 4"/><polyline data-series="z_mm" fill="none" stroke="#264653" stroke-width="2" points="56.0,36.0 82.9,36.0 109.7,36.0 136.6,153.3 163.4,153.3 190.3,36.0 217.1,36.0 244.0,153.3 270.9,153.3 297.7,36.0 324.6,36.0 351.4,153.3 378.3,153.3 405.1,36.0 432.0,36.0 458.9,36.0 485.7,36.0 512.6,36.0 539.4,164.0 566.3,164.0 593.1,36.0 620.0,36.0"/><polyline data-series="extrusion_mm" fill="none" stroke="#e9c46a" stroke-width="2" points="56.0,312.0 82.9,312.0 109.7,312.0 136.6,312.0 163.4,284.4 190.3,284.4 217.1,284.4 244.0,284.4 270.9,256.8 297.7,256.8 324.6,256.8 351.4,256.8 378.3,229.1 405.1,229.1 432.0,229.1 458.9,229.1 485.7,229.1 512.6,229.1 539.4,229.1 566.3,196.0 593.1,196.0 620.0,196.0"/><text x="56" y="26" font-family="sans-serif" font-size="14" fill="#1f2933">base_chain_row motion timeline</text><text x="56" y="172.0" font-family="sans-serif" font-size="12" fill="#264653">Z (mm)</text><text x="56" y="204.0" font-family="sans-serif" font-size="12" fill="#946c00">Extrusion (mm)</text><text x="616" y="336" font-family="sans-serif" font-size="12" fill="#1f2933" text-anchor="end">Command index</text></svg>
