<svg xmlns="http://www.w3.org/2000/svg" width="420" height="420" viewBox="0 0 420 420"><title>handwritten XY path</title><desc>Scaled XY motion path generated from planner events.</desc><rect x="32" y="32" width="356" height="356" fill="#f6f8fb" stroke="#cdd5e0" stroke-width="1"/><polyline data-role="xy-path" fill="none" stroke="#0069ff" stroke-width="2" points="32.0,388.0 32.0,388.0 32.0,388.0 32.0,388.0 32.0,388.0 32.0,388.0 150.7,388.0 150.7,388.0 150.7,388.0 150.7,388.0 269.3,388.0 269.3,388.0 269.3,388.0 269.3,388.0 388.0,388.0 388.0,388.0 388.0,191.6 32.0,32.0 32.0,32.0 32.0,32.0 32.0,32.0 138.8,32.0 138.8,32.0 138.8,32.0 138.8,32.0 245.6,32.0"/><circle cx="32.0" cy="388.0" r="5" fill="#2a9d8f"/><circle cx="245.6" cy="32.0" r="5" fill="#e76f51"/><text x="32" y="22" font-family="sans-serif" font-size="14" fill="#1f2933">handwritten XY motion</text></svg>