<svg xmlns="http://www.w3.org/2000/svg" width="640" height="360" viewBox="0 0 640 360"><title>handwritten timeline</title><desc>Z height and yarn feed plotted across emitted commands.</desc><rect x="56" y="36" width="564" height="276" fill="#f6f8fb" stroke="#cdd5e0" stroke-width="1"/><line x1="56" y1="180.0" x2="620" y2="180.0" stroke="#cdd5e0" stroke-dasharray="4 4"/><polyline data-series="z_mm" fill="none" stroke="#264653" stroke-width="2" points="56.0,36.0 78.6,36.0 101.1,36.0 123.7,153.3 146.2,153.3 168.8,36.0 191.4,36.0 213.9,153.3 236.5,153.3 259.0,36.0 281.6,36.0 304.2,153.3 326.7,153.3 349.3,36.0 371.8,36.0 394.4,36.0 417.0,36.0 439.5,36.0 462.1,164.0 484.6,164.0 507.2,36.0 529.8,36.0 552.3,164.0 574.9,164.0 597.4,36.0 620.0,36.0"/><polyline data-series="extrusion_mm" fill="none" stroke="#e9c46a" stroke-width="2" points="56.0,312.0 78.6,312.0 101.1,312.0 123.7,312.0 146.2,290.5 168.8,290.5 191.4,290.5 213.9,290.5 236.5,269.0 259.0,269.0 281.6,269.0 304.2,269.0 326.7,247.6 349.3,247.6 371.8,247.6 394.4,247.6 417.0,247.6 439.5,247.6 462.1,247.6 484.6,221.8 507.2,221.8 529.8,221.8 552.3,221.8 574.9,196.0 597.4,196.0 620.0,196.0"/><text x="56" y="26" font-family="sans-serif" font-size="14" fill="#1f2933">handwritten motion timeline</text><text x="56" y="172.0" font-family="sans-serif" font-size="12" fill="#264653">Z (mm)</text><text x="56" y="204.0" font-family="sans-serif" font-size="12" fill="#946c00">Extrusion (mm)</text><text x="616" y="336" font-family="sans-serif" font-size="12" fill="#1f2933" text-anchor="end">Command index</text></svg>
