<svg xmlns="http://www.w3.org/2000/svg" width="640" height="360" viewBox="0 0 640 360"><title>slip_join_double timeline</title><desc>Z height and yarn feed plotted across emitted commands.</desc><rect x="56" y="36" width="564" height="276" fill="#f6f8fb" stroke="#cdd5e0" stroke-width="1"/><line x1="56" y1="180.0" x2="620" y2="180.0" stroke="#cdd5e0" stroke-dasharray="4 4"/><polyline data-series="z_mm" fill="none" stroke="#264653" stroke-width="2" points="56.0,36.0 80.5,36.0 105.0,36.0 129.6,134.5 154.1,134.5 178.6,36.0 203.1,36.0 227.7,134.5 252.2,134.5 276.7,36.0 301.2,36.0 325.7,144.3 350.3,144.3 374.8,36.0 399.3,36.0 423.8,36.0 448.3,164.0 472.9,164.0 497.4,36.0 521.9,36.0 546.4,164.0 571.0,164.0 595.5,36.0 620.0,36.0"/><polyline data-series="extrusion_mm" fill="none" stroke="#e9c46a" stroke-width="2" points="56.0,312.0 80.5,312.0 105.0,312.0 129.6,312.0 154.1,298.1 178.6,298.1 203.1,298.1 227.7,298.1 252.2,284.2 276.7,284.2 301.2,284.2 325.7,284.2 350.3,261.0 374.8,261.0 399.3,261.0 423.8,261.0 448.3,261.0 472.9,228.5 497.4,228.5 521.9,228.5 546.4,228.5 571.0,196.0 595.5,196.0 620.0,196.0"/><text x="56" y="26" font-family="sans-serif" font-size="14" fill="#1f2933">slip_join_double motion timeline</text><text x="56" y="172.0" font-family="sans-serif" font-size="12" fill="#264653">Z (mm)</text><text x="56" y="204.0" font-family="sans-serif" font-size="12" fill="#946c00">Extrusion (mm)</text><text x="616" y="336" font-family="sans-serif" font-size="12" fill="#1f2933" text-anchor="end">Command index</text></svg>
