solid OpenSCAD_Model
  facet normal -0.92388 -0.382682 0
    outer loop
      vertex -1.76777 -1.76777 1
      vertex -2.5 0 20
      vertex -2.5 0 1
    endloop
  endfacet
  facet normal -0.92388 -0.382682 0
    outer loop
      vertex -2.5 0 20
      vertex -1.76777 -1.76777 1
      vertex -1.76777 -1.76777 20
    endloop
  endfacet
  facet normal 0.382682 0.92388 -0
    outer loop
      vertex 1.76777 1.76777 1
      vertex 0 2.5 20
      vertex 1.76777 1.76777 20
    endloop
  endfacet
  facet normal 0.382682 0.92388 0
    outer loop
      vertex 0 2.5 20
      vertex 1.76777 1.76777 1
      vertex 0 2.5 1
    endloop
  endfacet
  facet normal 0.92388 0.382682 0
    outer loop
      vertex 2.5 0 20
      vertex 1.76777 1.76777 1
      vertex 1.76777 1.76777 20
    endloop
  endfacet
  facet normal 0.92388 0.382682 0
    outer loop
      vertex 1.76777 1.76777 1
      vertex 2.5 0 20
      vertex 2.5 0 1
    endloop
  endfacet
  facet normal 0.92388 -0.382682 0
    outer loop
      vertex 1.76777 -1.76777 20
      vertex 2.5 0 1
      vertex 2.5 0 20
    endloop
  endfacet
  facet normal 0.92388 -0.382682 0
    outer loop
      vertex 2.5 0 1
      vertex 1.76777 -1.76777 20
      vertex 1.76777 -1.76777 1
    endloop
  endfacet
  facet normal -0.382682 -0.92388 0
    outer loop
      vertex -1.76777 -1.76777 1
      vertex 0 -2.5 20
      vertex -1.76777 -1.76777 20
    endloop
  endfacet
  facet normal -0.382682 -0.92388 -0
    outer loop
      vertex 0 -2.5 20
      vertex -1.76777 -1.76777 1
      vertex 0 -2.5 1
    endloop
  endfacet
  facet normal -0.382682 0.92388 0
    outer loop
      vertex 0 2.5 1
      vertex -1.76777 1.76777 20
      vertex 0 2.5 20
    endloop
  endfacet
  facet normal -0.382682 0.92388 0
    outer loop
      vertex -1.76777 1.76777 20
      vertex 0 2.5 1
      vertex -1.76777 1.76777 1
    endloop
  endfacet
  facet normal -0.92388 0.382682 0
    outer loop
      vertex -2.5 0 1
      vertex -1.76777 1.76777 20
      vertex -1.76777 1.76777 1
    endloop
  endfacet
  facet normal -0.92388 0.382682 0
    outer loop
      vertex -1.76777 1.76777 20
      vertex -2.5 0 1
      vertex -2.5 0 20
    endloop
  endfacet
  facet normal 0.382682 -0.92388 0
    outer loop
      vertex 0 -2.5 1
      vertex 1.76777 -1.76777 20
      vertex 0 -2.5 20
    endloop
  endfacet
  facet normal 0.382682 -0.92388 0
    outer loop
      vertex 1.76777 -1.76777 20
      vertex 0 -2.5 1
      vertex 1.76777 -1.76777 1
    endloop
  endfacet
  facet normal 0 0 1
    outer loop
      vertex 1.76777 1.76777 20
      vertex 1.76777 -1.76777 20
      vertex 2.5 0 20
    endloop
  endfacet
  facet normal 0 0 1
    outer loop
      vertex 0 2.5 20
      vertex 1.76777 -1.76777 20
      vertex 1.76777 1.76777 20
    endloop
  endfacet
  facet normal 0 0 1
    outer loop
      vertex 0 2.5 20
      vertex 0 -2.5 20
      vertex 1.76777 -1.76777 20
    endloop
  endfacet
  facet normal -0 0 1
    outer loop
      vertex -1.76777 1.76777 20
      vertex 0 -2.5 20
      vertex 0 2.5 20
    endloop
  endfacet
  facet normal 0 0 1
    outer loop
      vertex -1.76777 1.76777 20
      vertex -1.76777 -1.76777 20
      vertex 0 -2.5 20
    endloop
  endfacet
  facet normal 0 -0 1
    outer loop
      vertex -1.76777 -1.76777 20
      vertex -1.76777 1.76777 20
      vertex -2.5 0 20
    endloop
  endfacet
  facet normal 0.367073 0.152046 -0.917682
    outer loop
      vertex 2.5 0 1
      vertex 0 0 0
      vertex 1.76777 1.76777 1
    endloop
  endfacet
  facet normal -0.367073 0.152046 -0.917682
    outer loop
      vertex 0 0 0
      vertex -2.5 0 1
      vertex -1.76777 1.76777 1
    endloop
  endfacet
  facet normal 0.367073 -0.152046 -0.917682
    outer loop
      vertex 1.76777 -1.76777 1
      vertex 0 0 0
      vertex 2.5 0 1
    endloop
  endfacet
  facet normal 0.152046 0.367073 -0.917682
    outer loop
      vertex 1.76777 1.76777 1
      vertex 0 0 0
      vertex 0 2.5 1
    endloop
  endfacet
  facet normal -0.152046 -0.367073 -0.917682
    outer loop
      vertex 0 -2.5 1
      vertex -1.76777 -1.76777 1
      vertex 0 0 0
    endloop
  endfacet
  facet normal -0.152046 0.367073 -0.917682
    outer loop
      vertex 0 0 0
      vertex -1.76777 1.76777 1
      vertex 0 2.5 1
    endloop
  endfacet
  facet normal 0.152046 -0.367073 -0.917682
    outer loop
      vertex 1.76777 -1.76777 1
      vertex 0 -2.5 1
      vertex 0 0 0
    endloop
  endfacet
  facet normal -0.367073 -0.152046 -0.917682
    outer loop
      vertex -1.76777 -1.76777 1
      vertex -2.5 0 1
      vertex 0 0 0
    endloop
  endfacet
endsolid OpenSCAD_Model
