solid OpenSCAD_Model
  facet normal 1 -0 0
    outer loop
      vertex 10 -10 10
      vertex 10 10 -10
      vertex 10 10 10
    endloop
  endfacet
  facet normal 1 0 0
    outer loop
      vertex 10 10 -10
      vertex 10 -10 10
      vertex 10 -10 -10
    endloop
  endfacet
  facet normal 0 0 1
    outer loop
      vertex 10 10 10
      vertex 2.5 0 10
      vertex 10 -10 10
    endloop
  endfacet
  facet normal 0 0 1
    outer loop
      vertex 10 10 10
      vertex 1.76777 1.76777 10
      vertex 2.5 0 10
    endloop
  endfacet
  facet normal 0 0 1
    outer loop
      vertex 10 10 10
      vertex 0 2.5 10
      vertex 1.76777 1.76777 10
    endloop
  endfacet
  facet normal -0 0 1
    outer loop
      vertex -10 10 10
      vertex 0 2.5 10
      vertex 10 10 10
    endloop
  endfacet
  facet normal 0 0 1
    outer loop
      vertex -1.76777 1.76777 10
      vertex -10 10 10
      vertex -2.5 0 10
    endloop
  endfacet
  facet normal 0 0 1
    outer loop
      vertex 0 2.5 10
      vertex -10 10 10
      vertex -1.76777 1.76777 10
    endloop
  endfacet
  facet normal -0 0 1
    outer loop
      vertex 1.76777 -1.76777 10
      vertex 10 -10 10
      vertex 2.5 0 10
    endloop
  endfacet
  facet normal -0 0 1
    outer loop
      vertex 0 -2.5 10
      vertex 10 -10 10
      vertex 1.76777 -1.76777 10
    endloop
  endfacet
  facet normal 0 0 1
    outer loop
      vertex -10 -10 10
      vertex 0 -2.5 10
      vertex -1.76777 -1.76777 10
    endloop
  endfacet
  facet normal 0 0 1
    outer loop
      vertex -10 -10 10
      vertex -2.5 0 10
      vertex -10 10 10
    endloop
  endfacet
  facet normal 0 0 1
    outer loop
      vertex 0 -2.5 10
      vertex -10 -10 10
      vertex 10 -10 10
    endloop
  endfacet
  facet normal 0 0 1
    outer loop
      vertex -2.5 0 10
      vertex -10 -10 10
      vertex -1.76777 -1.76777 10
    endloop
  endfacet
  facet normal 0 0 -1
    outer loop
      vertex 10 -10 -10
      vertex 2.5 0 -10
      vertex 10 10 -10
    endloop
  endfacet
  facet normal 0 0 -1
    outer loop
      vertex 10 -10 -10
      vertex 1.76777 -1.76777 -10
      vertex 2.5 0 -10
    endloop
  endfacet
  facet normal 0 0 -1
    outer loop
      vertex 10 -10 -10
      vertex 0 -2.5 -10
      vertex 1.76777 -1.76777 -10
    endloop
  endfacet
  facet normal 0 0 -1
    outer loop
      vertex -10 -10 -10
      vertex 0 -2.5 -10
      vertex 10 -10 -10
    endloop
  endfacet
  facet normal -0 0 -1
    outer loop
      vertex -1.76777 -1.76777 -10
      vertex -10 -10 -10
      vertex -2.5 0 -10
    endloop
  endfacet
  facet normal -0 0 -1
    outer loop
      vertex 0 -2.5 -10
      vertex -10 -10 -10
      vertex -1.76777 -1.76777 -10
    endloop
  endfacet
  facet normal 0 0 -1
    outer loop
      vertex 1.76777 1.76777 -10
      vertex 10 10 -10
      vertex 2.5 0 -10
    endloop
  endfacet
  facet normal 0 0 -1
    outer loop
      vertex 0 2.5 -10
      vertex 10 10 -10
      vertex 1.76777 1.76777 -10
    endloop
  endfacet
  facet normal 0 0 -1
    outer loop
      vertex -10 10 -10
      vertex 0 2.5 -10
      vertex -1.76777 1.76777 -10
    endloop
  endfacet
  facet normal 0 0 -1
    outer loop
      vertex -10 10 -10
      vertex -2.5 0 -10
      vertex -10 -10 -10
    endloop
  endfacet
  facet normal 0 0 -1
    outer loop
      vertex 0 2.5 -10
      vertex -10 10 -10
      vertex 10 10 -10
    endloop
  endfacet
  facet normal 0 0 -1
    outer loop
      vertex -2.5 0 -10
      vertex -10 10 -10
      vertex -1.76777 1.76777 -10
    endloop
  endfacet
  facet normal -1 0 0
    outer loop
      vertex -10 -10 -10
      vertex -10 10 10
      vertex -10 10 -10
    endloop
  endfacet
  facet normal -1 -0 0
    outer loop
      vertex -10 10 10
      vertex -10 -10 -10
      vertex -10 -10 10
    endloop
  endfacet
  facet normal 0 1 -0
    outer loop
      vertex 10 10 -10
      vertex -10 10 10
      vertex 10 10 10
    endloop
  endfacet
  facet normal 0 1 0
    outer loop
      vertex -10 10 10
      vertex 10 10 -10
      vertex -10 10 -10
    endloop
  endfacet
  facet normal 0 -1 0
    outer loop
      vertex -10 -10 -10
      vertex 10 -10 10
      vertex -10 -10 10
    endloop
  endfacet
  facet normal 0 -1 -0
    outer loop
      vertex 10 -10 10
      vertex -10 -10 -10
      vertex 10 -10 -10
    endloop
  endfacet
  facet normal 0.92388 0.382682 0
    outer loop
      vertex -1.76777 -1.76777 10
      vertex -2.5 0 -10
      vertex -2.5 0 10
    endloop
  endfacet
  facet normal 0.92388 0.382682 0
    outer loop
      vertex -2.5 0 -10
      vertex -1.76777 -1.76777 10
      vertex -1.76777 -1.76777 -10
    endloop
  endfacet
  facet normal -0.382682 -0.92388 0
    outer loop
      vertex 0 2.5 -10
      vertex 1.76777 1.76777 10
      vertex 0 2.5 10
    endloop
  endfacet
  facet normal -0.382682 -0.92388 -0
    outer loop
      vertex 1.76777 1.76777 10
      vertex 0 2.5 -10
      vertex 1.76777 1.76777 -10
    endloop
  endfacet
  facet normal -0.92388 -0.382682 0
    outer loop
      vertex 2.5 0 -10
      vertex 1.76777 1.76777 10
      vertex 1.76777 1.76777 -10
    endloop
  endfacet
  facet normal -0.92388 -0.382682 0
    outer loop
      vertex 1.76777 1.76777 10
      vertex 2.5 0 -10
      vertex 2.5 0 10
    endloop
  endfacet
  facet normal 0.382682 0.92388 -0
    outer loop
      vertex 0 -2.5 -10
      vertex -1.76777 -1.76777 10
      vertex 0 -2.5 10
    endloop
  endfacet
  facet normal 0.382682 0.92388 0
    outer loop
      vertex -1.76777 -1.76777 10
      vertex 0 -2.5 -10
      vertex -1.76777 -1.76777 -10
    endloop
  endfacet
  facet normal 0.92388 -0.382682 0
    outer loop
      vertex -2.5 0 10
      vertex -1.76777 1.76777 -10
      vertex -1.76777 1.76777 10
    endloop
  endfacet
  facet normal 0.92388 -0.382682 0
    outer loop
      vertex -1.76777 1.76777 -10
      vertex -2.5 0 10
      vertex -2.5 0 -10
    endloop
  endfacet
  facet normal 0.382682 -0.92388 0
    outer loop
      vertex -1.76777 1.76777 -10
      vertex 0 2.5 10
      vertex -1.76777 1.76777 10
    endloop
  endfacet
  facet normal 0.382682 -0.92388 0
    outer loop
      vertex 0 2.5 10
      vertex -1.76777 1.76777 -10
      vertex 0 2.5 -10
    endloop
  endfacet
  facet normal -0.92388 0.382682 0
    outer loop
      vertex 1.76777 -1.76777 -10
      vertex 2.5 0 10
      vertex 2.5 0 -10
    endloop
  endfacet
  facet normal -0.92388 0.382682 0
    outer loop
      vertex 2.5 0 10
      vertex 1.76777 -1.76777 -10
      vertex 1.76777 -1.76777 10
    endloop
  endfacet
  facet normal -0.382682 0.92388 0
    outer loop
      vertex 1.76777 -1.76777 -10
      vertex 0 -2.5 10
      vertex 1.76777 -1.76777 10
    endloop
  endfacet
  facet normal -0.382682 0.92388 0
    outer loop
      vertex 0 -2.5 10
      vertex 1.76777 -1.76777 -10
      vertex 0 -2.5 -10
    endloop
  endfacet
endsolid OpenSCAD_Model
