solid OpenSCAD_Model
  facet normal 1 0 0
    outer loop
      vertex 5 5 30
      vertex 5 0 30
      vertex 5 5 5
    endloop
  endfacet
  facet normal 1 0 0
    outer loop
      vertex 5 15 5
      vertex 5 20 30
      vertex 5 15 30
    endloop
  endfacet
  facet normal 1 0 0
    outer loop
      vertex 5 20 30
      vertex 5 15 5
      vertex 5 20 0
    endloop
  endfacet
  facet normal 1 -0 0
    outer loop
      vertex 5 5 5
      vertex 5 20 0
      vertex 5 15 5
    endloop
  endfacet
  facet normal 1 0 0
    outer loop
      vertex 5 5 5
      vertex 5 0 0
      vertex 5 20 0
    endloop
  endfacet
  facet normal 1 0 0
    outer loop
      vertex 5 0 0
      vertex 5 5 5
      vertex 5 0 30
    endloop
  endfacet
  facet normal -0 0 1
    outer loop
      vertex 0 5 30
      vertex 5 0 30
      vertex 5 5 30
    endloop
  endfacet
  facet normal 0 0 1
    outer loop
      vertex 5 0 30
      vertex 0 5 30
      vertex 0 0 30
    endloop
  endfacet
  facet normal 0 0 -1
    outer loop
      vertex 0 0 0
      vertex 5 20 0
      vertex 5 0 0
    endloop
  endfacet
  facet normal -0 0 -1
    outer loop
      vertex 5 20 0
      vertex 0 0 0
      vertex 0 20 0
    endloop
  endfacet
  facet normal -1 0 0
    outer loop
      vertex 0 20 0
      vertex 0 15 5
      vertex 0 20 30
    endloop
  endfacet
  facet normal -1 0 0
    outer loop
      vertex 0 20 0
      vertex 0 5 5
      vertex 0 15 5
    endloop
  endfacet
  facet normal -1 0 0
    outer loop
      vertex 0 0 0
      vertex 0 5 5
      vertex 0 20 0
    endloop
  endfacet
  facet normal -1 0 0
    outer loop
      vertex 0 0 30
      vertex 0 5 5
      vertex 0 0 0
    endloop
  endfacet
  facet normal -1 0 0
    outer loop
      vertex 0 5 5
      vertex 0 0 30
      vertex 0 5 30
    endloop
  endfacet
  facet normal -1 -0 0
    outer loop
      vertex 0 20 30
      vertex 0 15 5
      vertex 0 15 30
    endloop
  endfacet
  facet normal 0 1 -0
    outer loop
      vertex 5 5 5
      vertex 0 5 30
      vertex 5 5 30
    endloop
  endfacet
  facet normal 0 1 0
    outer loop
      vertex 0 5 30
      vertex 5 5 5
      vertex 0 5 5
    endloop
  endfacet
  facet normal 0 -1 0
    outer loop
      vertex 0 0 0
      vertex 5 0 30
      vertex 0 0 30
    endloop
  endfacet
  facet normal 0 -1 -0
    outer loop
      vertex 5 0 30
      vertex 0 0 0
      vertex 5 0 0
    endloop
  endfacet
  facet normal -0 0 1
    outer loop
      vertex 0 15 5
      vertex 5 5 5
      vertex 5 15 5
    endloop
  endfacet
  facet normal 0 0 1
    outer loop
      vertex 5 5 5
      vertex 0 15 5
      vertex 0 5 5
    endloop
  endfacet
  facet normal 0 1 -0
    outer loop
      vertex 5 20 0
      vertex 0 20 30
      vertex 5 20 30
    endloop
  endfacet
  facet normal 0 1 0
    outer loop
      vertex 0 20 30
      vertex 5 20 0
      vertex 0 20 0
    endloop
  endfacet
  facet normal -0 0 1
    outer loop
      vertex 0 20 30
      vertex 5 15 30
      vertex 5 20 30
    endloop
  endfacet
  facet normal 0 0 1
    outer loop
      vertex 5 15 30
      vertex 0 20 30
      vertex 0 15 30
    endloop
  endfacet
  facet normal 0 -1 0
    outer loop
      vertex 0 15 5
      vertex 5 15 30
      vertex 0 15 30
    endloop
  endfacet
  facet normal 0 -1 -0
    outer loop
      vertex 5 15 30
      vertex 0 15 5
      vertex 5 15 5
    endloop
  endfacet
endsolid OpenSCAD_Model
