solid OpenSCAD_Model
  facet normal 1 -0 0
    outer loop
      vertex 20 0 3
      vertex 20 20 0
      vertex 20 20 3
    endloop
  endfacet
  facet normal 1 0 0
    outer loop
      vertex 20 20 0
      vertex 20 0 3
      vertex 20 0 0
    endloop
  endfacet
  facet normal 0 0 1
    outer loop
      vertex 20 20 3
      vertex 11.5 10 3
      vertex 20 0 3
    endloop
  endfacet
  facet normal 0 0 1
    outer loop
      vertex 20 20 3
      vertex 10.4635 11.4266 3
      vertex 11.5 10 3
    endloop
  endfacet
  facet normal -0 0 1
    outer loop
      vertex 3 20 3
      vertex 10.4635 11.4266 3
      vertex 20 20 3
    endloop
  endfacet
  facet normal 0 0 1
    outer loop
      vertex 8.78647 10.8817 3
      vertex 3 20 3
      vertex 8.78647 9.11832 3
    endloop
  endfacet
  facet normal 0 0 1
    outer loop
      vertex 10.4635 11.4266 3
      vertex 3 20 3
      vertex 8.78647 10.8817 3
    endloop
  endfacet
  facet normal -0 0 1
    outer loop
      vertex 10.4635 8.57341 3
      vertex 20 0 3
      vertex 11.5 10 3
    endloop
  endfacet
  facet normal 0 0 1
    outer loop
      vertex 3 0 3
      vertex 10.4635 8.57341 3
      vertex 8.78647 9.11832 3
    endloop
  endfacet
  facet normal 0 0 1
    outer loop
      vertex 10.4635 8.57341 3
      vertex 3 0 3
      vertex 20 0 3
    endloop
  endfacet
  facet normal 0 0 1
    outer loop
      vertex 3 0 3
      vertex 8.78647 9.11832 3
      vertex 3 20 3
    endloop
  endfacet
  facet normal 0 0 -1
    outer loop
      vertex 20 0 0
      vertex 11.5 10 0
      vertex 20 20 0
    endloop
  endfacet
  facet normal 0 0 -1
    outer loop
      vertex 20 0 0
      vertex 10.4635 8.57341 0
      vertex 11.5 10 0
    endloop
  endfacet
  facet normal 0 0 -1
    outer loop
      vertex 0 0 0
      vertex 10.4635 8.57341 0
      vertex 20 0 0
    endloop
  endfacet
  facet normal -0 0 -1
    outer loop
      vertex 8.78647 9.11832 0
      vertex 0 0 0
      vertex 8.78647 10.8817 0
    endloop
  endfacet
  facet normal -0 0 -1
    outer loop
      vertex 10.4635 8.57341 0
      vertex 0 0 0
      vertex 8.78647 9.11832 0
    endloop
  endfacet
  facet normal 0 0 -1
    outer loop
      vertex 10.4635 11.4266 0
      vertex 20 20 0
      vertex 11.5 10 0
    endloop
  endfacet
  facet normal 0 0 -1
    outer loop
      vertex 0 20 0
      vertex 10.4635 11.4266 0
      vertex 8.78647 10.8817 0
    endloop
  endfacet
  facet normal 0 0 -1
    outer loop
      vertex 10.4635 11.4266 0
      vertex 0 20 0
      vertex 20 20 0
    endloop
  endfacet
  facet normal 0 0 -1
    outer loop
      vertex 0 20 0
      vertex 8.78647 10.8817 0
      vertex 0 0 0
    endloop
  endfacet
  facet normal -1 0 0
    outer loop
      vertex 0 0 0
      vertex 0 20 13
      vertex 0 20 0
    endloop
  endfacet
  facet normal -1 -0 0
    outer loop
      vertex 0 20 13
      vertex 0 0 0
      vertex 0 0 13
    endloop
  endfacet
  facet normal 0 1 0
    outer loop
      vertex 20 20 3
      vertex 20 20 0
      vertex 3 20 3
    endloop
  endfacet
  facet normal 0 1 -0
    outer loop
      vertex 3 20 3
      vertex 0 20 13
      vertex 3 20 13
    endloop
  endfacet
  facet normal 0 1 0
    outer loop
      vertex 3 20 3
      vertex 0 20 0
      vertex 0 20 13
    endloop
  endfacet
  facet normal 0 1 0
    outer loop
      vertex 0 20 0
      vertex 3 20 3
      vertex 20 20 0
    endloop
  endfacet
  facet normal 0 -1 0
    outer loop
      vertex 0 0 13
      vertex 3 0 3
      vertex 3 0 13
    endloop
  endfacet
  facet normal 0 -1 0
    outer loop
      vertex 0 0 0
      vertex 3 0 3
      vertex 0 0 13
    endloop
  endfacet
  facet normal 0 -1 0
    outer loop
      vertex 20 0 0
      vertex 3 0 3
      vertex 0 0 0
    endloop
  endfacet
  facet normal 0 -1 0
    outer loop
      vertex 3 0 3
      vertex 20 0 0
      vertex 20 0 3
    endloop
  endfacet
  facet normal 1 -0 0
    outer loop
      vertex 3 0 13
      vertex 3 20 3
      vertex 3 20 13
    endloop
  endfacet
  facet normal 1 0 0
    outer loop
      vertex 3 20 3
      vertex 3 0 13
      vertex 3 0 3
    endloop
  endfacet
  facet normal -0 0 1
    outer loop
      vertex 0 20 13
      vertex 3 0 13
      vertex 3 20 13
    endloop
  endfacet
  facet normal 0 0 1
    outer loop
      vertex 3 0 13
      vertex 0 20 13
      vertex 0 0 13
    endloop
  endfacet
  facet normal 0.309022 0.951055 -0
    outer loop
      vertex 10.4635 8.57341 0
      vertex 8.78647 9.11832 3
      vertex 10.4635 8.57341 3
    endloop
  endfacet
  facet normal 0.309022 0.951055 0
    outer loop
      vertex 8.78647 9.11832 3
      vertex 10.4635 8.57341 0
      vertex 8.78647 9.11832 0
    endloop
  endfacet
  facet normal 0.309017 -0.951057 0
    outer loop
      vertex 8.78647 10.8817 0
      vertex 10.4635 11.4266 3
      vertex 8.78647 10.8817 3
    endloop
  endfacet
  facet normal 0.309017 -0.951057 0
    outer loop
      vertex 10.4635 11.4266 3
      vertex 8.78647 10.8817 0
      vertex 10.4635 11.4266 0
    endloop
  endfacet
  facet normal -0.809013 -0.587791 0
    outer loop
      vertex 11.5 10 0
      vertex 10.4635 11.4266 3
      vertex 10.4635 11.4266 0
    endloop
  endfacet
  facet normal -0.809013 -0.587791 0
    outer loop
      vertex 10.4635 11.4266 3
      vertex 11.5 10 0
      vertex 11.5 10 3
    endloop
  endfacet
  facet normal 1 -0 0
    outer loop
      vertex 8.78647 9.11832 3
      vertex 8.78647 10.8817 0
      vertex 8.78647 10.8817 3
    endloop
  endfacet
  facet normal 1 0 0
    outer loop
      vertex 8.78647 10.8817 0
      vertex 8.78647 9.11832 3
      vertex 8.78647 9.11832 0
    endloop
  endfacet
  facet normal -0.809011 0.587793 0
    outer loop
      vertex 10.4635 8.57341 0
      vertex 11.5 10 3
      vertex 11.5 10 0
    endloop
  endfacet
  facet normal -0.809011 0.587793 0
    outer loop
      vertex 11.5 10 3
      vertex 10.4635 8.57341 0
      vertex 10.4635 8.57341 3
    endloop
  endfacet
endsolid OpenSCAD_Model
