solid OpenSCAD_Model
  facet normal -0.568064 0.822984 0
    outer loop
      vertex -1.41842 3.74006 1
      vertex -2.99404 2.65249 4
      vertex -1.41842 3.74006 4
    endloop
  endfacet
  facet normal -0.568064 0.822984 0
    outer loop
      vertex -2.99404 2.65249 4
      vertex -1.41842 3.74006 1
      vertex -2.99404 2.65249 1
    endloop
  endfacet
  facet normal 0.748511 0.663122 0
    outer loop
      vertex 3.54182 1.85889 4
      vertex 2.27226 3.29193 1
      vertex 2.27226 3.29193 4
    endloop
  endfacet
  facet normal 0.748511 0.663122 0
    outer loop
      vertex 2.27226 3.29193 1
      vertex 3.54182 1.85889 4
      vertex 3.54182 1.85889 1
    endloop
  endfacet
  facet normal 0.970941 0.239318 0
    outer loop
      vertex 4 0 4
      vertex 3.54182 1.85889 1
      vertex 3.54182 1.85889 4
    endloop
  endfacet
  facet normal 0.970941 0.239318 0
    outer loop
      vertex 3.54182 1.85889 1
      vertex 4 0 4
      vertex 4 0 1
    endloop
  endfacet
  facet normal -1 0 0
    outer loop
      vertex -3.88377 -0.957262 1
      vertex -3.88377 0.957262 4
      vertex -3.88377 0.957262 1
    endloop
  endfacet
  facet normal -1 -0 0
    outer loop
      vertex -3.88377 0.957262 4
      vertex -3.88377 -0.957262 1
      vertex -3.88377 -0.957262 4
    endloop
  endfacet
  facet normal -0.885455 0.464726 0
    outer loop
      vertex -3.88377 0.957262 1
      vertex -2.99404 2.65249 4
      vertex -2.99404 2.65249 1
    endloop
  endfacet
  facet normal -0.885455 0.464726 0
    outer loop
      vertex -2.99404 2.65249 4
      vertex -3.88377 0.957262 1
      vertex -3.88377 0.957262 4
    endloop
  endfacet
  facet normal 0.354605 0.935016 -0
    outer loop
      vertex 2.27226 3.29193 1
      vertex 0.482146 3.97083 4
      vertex 2.27226 3.29193 4
    endloop
  endfacet
  facet normal 0.354605 0.935016 0
    outer loop
      vertex 0.482146 3.97083 4
      vertex 2.27226 3.29193 1
      vertex 0.482146 3.97083 1
    endloop
  endfacet
  facet normal 0.970941 -0.239318 0
    outer loop
      vertex 3.54182 -1.85889 4
      vertex 4 0 1
      vertex 4 0 4
    endloop
  endfacet
  facet normal 0.970941 -0.239318 0
    outer loop
      vertex 4 0 1
      vertex 3.54182 -1.85889 4
      vertex 3.54182 -1.85889 1
    endloop
  endfacet
  facet normal 0 0 -1
    outer loop
      vertex 4 0 4
      vertex 5 0 4
      vertex 4.6194 -1.91342 4
    endloop
  endfacet
  facet normal 0 0 -1
    outer loop
      vertex 5 0 4
      vertex 4 0 4
      vertex 4.6194 1.91342 4
    endloop
  endfacet
  facet normal 0 0 -1
    outer loop
      vertex 4.6194 -1.91342 4
      vertex 3.54182 -1.85889 4
      vertex 4 0 4
    endloop
  endfacet
  facet normal 0 0 -1
    outer loop
      vertex 3.53553 -3.53553 4
      vertex 3.54182 -1.85889 4
      vertex 4.6194 -1.91342 4
    endloop
  endfacet
  facet normal 0 0 -1
    outer loop
      vertex 3.53553 -3.53553 4
      vertex 2.27226 -3.29193 4
      vertex 3.54182 -1.85889 4
    endloop
  endfacet
  facet normal 0 0 -1
    outer loop
      vertex 1.91342 -4.6194 4
      vertex 2.27226 -3.29193 4
      vertex 3.53553 -3.53553 4
    endloop
  endfacet
  facet normal 0 0 -1
    outer loop
      vertex 1.91342 -4.6194 4
      vertex 0.482146 -3.97083 4
      vertex 2.27226 -3.29193 4
    endloop
  endfacet
  facet normal 0 0 -1
    outer loop
      vertex 0 -5 4
      vertex 0.482146 -3.97083 4
      vertex 1.91342 -4.6194 4
    endloop
  endfacet
  facet normal 0 0 -1
    outer loop
      vertex 0 -5 4
      vertex -1.41842 -3.74006 4
      vertex 0.482146 -3.97083 4
    endloop
  endfacet
  facet normal 0 0 -1
    outer loop
      vertex -1.91342 -4.6194 4
      vertex -1.41842 -3.74006 4
      vertex 0 -5 4
    endloop
  endfacet
  facet normal 0 0 -1
    outer loop
      vertex -3.53553 -3.53553 4
      vertex -1.41842 -3.74006 4
      vertex -1.91342 -4.6194 4
    endloop
  endfacet
  facet normal 0 0 -1
    outer loop
      vertex -1.41842 -3.74006 4
      vertex -3.53553 -3.53553 4
      vertex -2.99404 -2.65249 4
    endloop
  endfacet
  facet normal 0 0 -1
    outer loop
      vertex -4.6194 -1.91342 4
      vertex -2.99404 -2.65249 4
      vertex -3.53553 -3.53553 4
    endloop
  endfacet
  facet normal 0 0 -1
    outer loop
      vertex -5 0 4
      vertex -3.88377 -0.957262 4
      vertex -4.6194 -1.91342 4
    endloop
  endfacet
  facet normal 0 0 -1
    outer loop
      vertex -2.99404 -2.65249 4
      vertex -4.6194 -1.91342 4
      vertex -3.88377 -0.957262 4
    endloop
  endfacet
  facet normal 0 0 -1
    outer loop
      vertex 3.54182 1.85889 4
      vertex 4.6194 1.91342 4
      vertex 4 0 4
    endloop
  endfacet
  facet normal 0 0 -1
    outer loop
      vertex 3.54182 1.85889 4
      vertex 3.53553 3.53553 4
      vertex 4.6194 1.91342 4
    endloop
  endfacet
  facet normal 0 0 -1
    outer loop
      vertex 2.27226 3.29193 4
      vertex 3.53553 3.53553 4
      vertex 3.54182 1.85889 4
    endloop
  endfacet
  facet normal 0 0 -1
    outer loop
      vertex 2.27226 3.29193 4
      vertex 1.91342 4.6194 4
      vertex 3.53553 3.53553 4
    endloop
  endfacet
  facet normal 0 0 -1
    outer loop
      vertex 0.482146 3.97083 4
      vertex 1.91342 4.6194 4
      vertex 2.27226 3.29193 4
    endloop
  endfacet
  facet normal 0 0 -1
    outer loop
      vertex 0.482146 3.97083 4
      vertex 0 5 4
      vertex 1.91342 4.6194 4
    endloop
  endfacet
  facet normal 0 0 -1
    outer loop
      vertex -1.41842 3.74006 4
      vertex 0 5 4
      vertex 0.482146 3.97083 4
    endloop
  endfacet
  facet normal 0 0 -1
    outer loop
      vertex -1.41842 3.74006 4
      vertex -1.91342 4.6194 4
      vertex 0 5 4
    endloop
  endfacet
  facet normal 0 0 -1
    outer loop
      vertex -3.53553 3.53553 4
      vertex -1.41842 3.74006 4
      vertex -2.99404 2.65249 4
    endloop
  endfacet
  facet normal -0 0 -1
    outer loop
      vertex -1.41842 3.74006 4
      vertex -3.53553 3.53553 4
      vertex -1.91342 4.6194 4
    endloop
  endfacet
  facet normal 0 0 -1
    outer loop
      vertex -4.6194 1.91342 4
      vertex -2.99404 2.65249 4
      vertex -3.88377 0.957262 4
    endloop
  endfacet
  facet normal 0 0 -1
    outer loop
      vertex -3.88377 -0.957262 4
      vertex -5 0 4
      vertex -3.88377 0.957262 4
    endloop
  endfacet
  facet normal -0 0 -1
    outer loop
      vertex -2.99404 2.65249 4
      vertex -4.6194 1.91342 4
      vertex -3.53553 3.53553 4
    endloop
  endfacet
  facet normal -0 0 -1
    outer loop
      vertex -3.88377 0.957262 4
      vertex -5 0 4
      vertex -4.6194 1.91342 4
    endloop
  endfacet
  facet normal -0.120536 -0.992709 0
    outer loop
      vertex -1.41842 -3.74006 1
      vertex 0.482146 -3.97083 4
      vertex -1.41842 -3.74006 4
    endloop
  endfacet
  facet normal -0.120536 -0.992709 -0
    outer loop
      vertex 0.482146 -3.97083 4
      vertex -1.41842 -3.74006 1
      vertex 0.482146 -3.97083 1
    endloop
  endfacet
  facet normal 0.748511 -0.663122 0
    outer loop
      vertex 2.27226 -3.29193 4
      vertex 3.54182 -1.85889 1
      vertex 3.54182 -1.85889 4
    endloop
  endfacet
  facet normal 0.748511 -0.663122 0
    outer loop
      vertex 3.54182 -1.85889 1
      vertex 2.27226 -3.29193 4
      vertex 2.27226 -3.29193 1
    endloop
  endfacet
  facet normal 0.354605 -0.935016 0
    outer loop
      vertex 0.482146 -3.97083 1
      vertex 2.27226 -3.29193 4
      vertex 0.482146 -3.97083 4
    endloop
  endfacet
  facet normal 0.354605 -0.935016 0
    outer loop
      vertex 2.27226 -3.29193 4
      vertex 0.482146 -3.97083 1
      vertex 2.27226 -3.29193 1
    endloop
  endfacet
  facet normal -0.120536 0.992709 0
    outer loop
      vertex 0.482146 3.97083 1
      vertex -1.41842 3.74006 4
      vertex 0.482146 3.97083 4
    endloop
  endfacet
  facet normal -0.120536 0.992709 0
    outer loop
      vertex -1.41842 3.74006 4
      vertex 0.482146 3.97083 1
      vertex -1.41842 3.74006 1
    endloop
  endfacet
  facet normal -0.568064 -0.822984 0
    outer loop
      vertex -2.99404 -2.65249 1
      vertex -1.41842 -3.74006 4
      vertex -2.99404 -2.65249 4
    endloop
  endfacet
  facet normal -0.568064 -0.822984 -0
    outer loop
      vertex -1.41842 -3.74006 4
      vertex -2.99404 -2.65249 1
      vertex -1.41842 -3.74006 1
    endloop
  endfacet
  facet normal -0.885455 -0.464726 0
    outer loop
      vertex -2.99404 -2.65249 1
      vertex -3.88377 -0.957262 4
      vertex -3.88377 -0.957262 1
    endloop
  endfacet
  facet normal -0.885455 -0.464726 0
    outer loop
      vertex -3.88377 -0.957262 4
      vertex -2.99404 -2.65249 1
      vertex -2.99404 -2.65249 4
    endloop
  endfacet
  facet normal 0 0 1
    outer loop
      vertex 4 0 1
      vertex 5 0 1
      vertex 4.6194 1.91342 1
    endloop
  endfacet
  facet normal 0 0 1
    outer loop
      vertex 5 0 1
      vertex 4 0 1
      vertex 4.6194 -1.91342 1
    endloop
  endfacet
  facet normal 0 0 1
    outer loop
      vertex 4.6194 1.91342 1
      vertex 3.54182 1.85889 1
      vertex 4 0 1
    endloop
  endfacet
  facet normal 0 0 1
    outer loop
      vertex 3.53553 3.53553 1
      vertex 3.54182 1.85889 1
      vertex 4.6194 1.91342 1
    endloop
  endfacet
  facet normal 0 0 1
    outer loop
      vertex 3.53553 3.53553 1
      vertex 2.27226 3.29193 1
      vertex 3.54182 1.85889 1
    endloop
  endfacet
  facet normal 0 0 1
    outer loop
      vertex 1.91342 4.6194 1
      vertex 2.27226 3.29193 1
      vertex 3.53553 3.53553 1
    endloop
  endfacet
  facet normal 0 0 1
    outer loop
      vertex 1.91342 4.6194 1
      vertex 0.482146 3.97083 1
      vertex 2.27226 3.29193 1
    endloop
  endfacet
  facet normal 0 0 1
    outer loop
      vertex 0 5 1
      vertex 0.482146 3.97083 1
      vertex 1.91342 4.6194 1
    endloop
  endfacet
  facet normal 0 0 1
    outer loop
      vertex 0 5 1
      vertex -1.41842 3.74006 1
      vertex 0.482146 3.97083 1
    endloop
  endfacet
  facet normal -0 0 1
    outer loop
      vertex -1.91342 4.6194 1
      vertex -1.41842 3.74006 1
      vertex 0 5 1
    endloop
  endfacet
  facet normal 0 0 1
    outer loop
      vertex -3.53553 3.53553 1
      vertex -1.41842 3.74006 1
      vertex -1.91342 4.6194 1
    endloop
  endfacet
  facet normal 0 0 1
    outer loop
      vertex -1.41842 3.74006 1
      vertex -3.53553 3.53553 1
      vertex -2.99404 2.65249 1
    endloop
  endfacet
  facet normal 0 0 1
    outer loop
      vertex -4.6194 1.91342 1
      vertex -2.99404 2.65249 1
      vertex -3.53553 3.53553 1
    endloop
  endfacet
  facet normal 0 0 1
    outer loop
      vertex -5 0 1
      vertex -3.88377 0.957262 1
      vertex -4.6194 1.91342 1
    endloop
  endfacet
  facet normal 0 0 1
    outer loop
      vertex -2.99404 2.65249 1
      vertex -4.6194 1.91342 1
      vertex -3.88377 0.957262 1
    endloop
  endfacet
  facet normal -0 0 1
    outer loop
      vertex 3.54182 -1.85889 1
      vertex 4.6194 -1.91342 1
      vertex 4 0 1
    endloop
  endfacet
  facet normal 0 0 1
    outer loop
      vertex 3.54182 -1.85889 1
      vertex 3.53553 -3.53553 1
      vertex 4.6194 -1.91342 1
    endloop
  endfacet
  facet normal -0 0 1
    outer loop
      vertex 2.27226 -3.29193 1
      vertex 3.53553 -3.53553 1
      vertex 3.54182 -1.85889 1
    endloop
  endfacet
  facet normal 0 0 1
    outer loop
      vertex 2.27226 -3.29193 1
      vertex 1.91342 -4.6194 1
      vertex 3.53553 -3.53553 1
    endloop
  endfacet
  facet normal -0 0 1
    outer loop
      vertex 0.482146 -3.97083 1
      vertex 1.91342 -4.6194 1
      vertex 2.27226 -3.29193 1
    endloop
  endfacet
  facet normal 0 0 1
    outer loop
      vertex 0.482146 -3.97083 1
      vertex 0 -5 1
      vertex 1.91342 -4.6194 1
    endloop
  endfacet
  facet normal 0 0 1
    outer loop
      vertex -1.41842 -3.74006 1
      vertex 0 -5 1
      vertex 0.482146 -3.97083 1
    endloop
  endfacet
  facet normal 0 0 1
    outer loop
      vertex -1.41842 -3.74006 1
      vertex -1.91342 -4.6194 1
      vertex 0 -5 1
    endloop
  endfacet
  facet normal -0 0 1
    outer loop
      vertex -3.53553 -3.53553 1
      vertex -1.41842 -3.74006 1
      vertex -2.99404 -2.65249 1
    endloop
  endfacet
  facet normal 0 0 1
    outer loop
      vertex -1.41842 -3.74006 1
      vertex -3.53553 -3.53553 1
      vertex -1.91342 -4.6194 1
    endloop
  endfacet
  facet normal -0 0 1
    outer loop
      vertex -4.6194 -1.91342 1
      vertex -2.99404 -2.65249 1
      vertex -3.88377 -0.957262 1
    endloop
  endfacet
  facet normal 0 0 1
    outer loop
      vertex -3.88377 0.957262 1
      vertex -5 0 1
      vertex -3.88377 -0.957262 1
    endloop
  endfacet
  facet normal 0 0 1
    outer loop
      vertex -2.99404 -2.65249 1
      vertex -4.6194 -1.91342 1
      vertex -3.53553 -3.53553 1
    endloop
  endfacet
  facet normal 0 0 1
    outer loop
      vertex -3.88377 -0.957262 1
      vertex -5 0 1
      vertex -4.6194 -1.91342 1
    endloop
  endfacet
  facet normal 0.39664 -0.593617 -0.700211
    outer loop
      vertex 3.53553 -3.53553 1
      vertex 1.53073 -3.69552 0
      vertex 2.82843 -2.82843 0
    endloop
  endfacet
  facet normal 0 0 -1
    outer loop
      vertex 2.5 0 0
      vertex 4 0 0
      vertex 3.69552 -1.53073 0
    endloop
  endfacet
  facet normal 0 0 -1
    outer loop
      vertex 1.76777 -1.76777 0
      vertex 3.69552 -1.53073 0
      vertex 2.82843 -2.82843 0
    endloop
  endfacet
  facet normal 0 0 -1
    outer loop
      vertex 4 0 0
      vertex 2.5 0 0
      vertex 3.69552 1.53073 0
    endloop
  endfacet
  facet normal 0 0 -1
    outer loop
      vertex 1.76777 1.76777 0
      vertex 3.69552 1.53073 0
      vertex 2.5 0 0
    endloop
  endfacet
  facet normal -0 0 -1
    outer loop
      vertex 3.69552 -1.53073 0
      vertex 1.76777 -1.76777 0
      vertex 2.5 0 0
    endloop
  endfacet
  facet normal 0 0 -1
    outer loop
      vertex 1.53073 -3.69552 0
      vertex 1.76777 -1.76777 0
      vertex 2.82843 -2.82843 0
    endloop
  endfacet
  facet normal 0 0 -1
    outer loop
      vertex 0 -2.5 0
      vertex 1.53073 -3.69552 0
      vertex 0 -4 0
    endloop
  endfacet
  facet normal 0 0 -1
    outer loop
      vertex 1.53073 -3.69552 0
      vertex 0 -2.5 0
      vertex 1.76777 -1.76777 0
    endloop
  endfacet
  facet normal 0 0 -1
    outer loop
      vertex -1.53073 -3.69552 0
      vertex 0 -2.5 0
      vertex 0 -4 0
    endloop
  endfacet
  facet normal 0 0 -1
    outer loop
      vertex -1.53073 -3.69552 0
      vertex -1.76777 -1.76777 0
      vertex 0 -2.5 0
    endloop
  endfacet
  facet normal 0 0 -1
    outer loop
      vertex -2.82843 -2.82843 0
      vertex -1.76777 -1.76777 0
      vertex -1.53073 -3.69552 0
    endloop
  endfacet
  facet normal 0 0 -1
    outer loop
      vertex -3.69552 -1.53073 0
      vertex -1.76777 -1.76777 0
      vertex -2.82843 -2.82843 0
    endloop
  endfacet
  facet normal 0 0 -1
    outer loop
      vertex 3.69552 1.53073 0
      vertex 1.76777 1.76777 0
      vertex 2.82843 2.82843 0
    endloop
  endfacet
  facet normal 0 0 -1
    outer loop
      vertex 1.76777 1.76777 0
      vertex 1.53073 3.69552 0
      vertex 2.82843 2.82843 0
    endloop
  endfacet
  facet normal 0 0 -1
    outer loop
      vertex 0 2.5 0
      vertex 1.53073 3.69552 0
      vertex 1.76777 1.76777 0
    endloop
  endfacet
  facet normal 0 0 -1
    outer loop
      vertex 0 2.5 0
      vertex 0 4 0
      vertex 1.53073 3.69552 0
    endloop
  endfacet
  facet normal 0 0 -1
    outer loop
      vertex 0 2.5 0
      vertex -1.53073 3.69552 0
      vertex 0 4 0
    endloop
  endfacet
  facet normal 0 0 -1
    outer loop
      vertex -1.76777 1.76777 0
      vertex -1.53073 3.69552 0
      vertex 0 2.5 0
    endloop
  endfacet
  facet normal 0 0 -1
    outer loop
      vertex -3.69552 1.53073 0
      vertex -1.76777 1.76777 0
      vertex -2.5 0 0
    endloop
  endfacet
  facet normal 0 0 -1
    outer loop
      vertex -1.76777 1.76777 0
      vertex -2.82843 2.82843 0
      vertex -1.53073 3.69552 0
    endloop
  endfacet
  facet normal 0 0 -1
    outer loop
      vertex -1.76777 -1.76777 0
      vertex -3.69552 -1.53073 0
      vertex -2.5 0 0
    endloop
  endfacet
  facet normal 0 0 -1
    outer loop
      vertex -4 0 0
      vertex -2.5 0 0
      vertex -3.69552 -1.53073 0
    endloop
  endfacet
  facet normal -0 0 -1
    outer loop
      vertex -1.76777 1.76777 0
      vertex -3.69552 1.53073 0
      vertex -2.82843 2.82843 0
    endloop
  endfacet
  facet normal 0 0 -1
    outer loop
      vertex -2.5 0 0
      vertex -4 0 0
      vertex -3.69552 1.53073 0
    endloop
  endfacet
  facet normal -0.59361 -0.396642 -0.700216
    outer loop
      vertex -3.53553 -3.53553 1
      vertex -4.6194 -1.91342 1
      vertex -3.69552 -1.53073 0
    endloop
  endfacet
  facet normal -0.396642 0.59361 -0.700216
    outer loop
      vertex -1.53073 3.69552 0
      vertex -3.53553 3.53553 1
      vertex -1.91342 4.6194 1
    endloop
  endfacet
  facet normal 0.700215 0.13928 -0.700215
    outer loop
      vertex 5 0 1
      vertex 4 0 0
      vertex 4.6194 1.91342 1
    endloop
  endfacet
  facet normal 0.700214 0.139281 -0.700215
    outer loop
      vertex 4 0 0
      vertex 3.69552 1.53073 0
      vertex 4.6194 1.91342 1
    endloop
  endfacet
  facet normal -0.59361 0.396642 -0.700216
    outer loop
      vertex -3.69552 1.53073 0
      vertex -4.6194 1.91342 1
      vertex -3.53553 3.53553 1
    endloop
  endfacet
  facet normal -0.593617 -0.39664 -0.700211
    outer loop
      vertex -3.53553 -3.53553 1
      vertex -3.69552 -1.53073 0
      vertex -2.82843 -2.82843 0
    endloop
  endfacet
  facet normal -0.39664 -0.593617 -0.700211
    outer loop
      vertex -1.53073 -3.69552 0
      vertex -3.53553 -3.53553 1
      vertex -2.82843 -2.82843 0
    endloop
  endfacet
  facet normal -0.700215 0.13928 -0.700215
    outer loop
      vertex -4 0 0
      vertex -5 0 1
      vertex -4.6194 1.91342 1
    endloop
  endfacet
  facet normal -0.700215 -0.13928 -0.700215
    outer loop
      vertex -4.6194 -1.91342 1
      vertex -5 0 1
      vertex -4 0 0
    endloop
  endfacet
  facet normal 0.13928 -0.700215 -0.700215
    outer loop
      vertex 1.91342 -4.6194 1
      vertex 0 -5 1
      vertex 0 -4 0
    endloop
  endfacet
  facet normal 0.59361 -0.396642 -0.700216
    outer loop
      vertex 4.6194 -1.91342 1
      vertex 3.53553 -3.53553 1
      vertex 3.69552 -1.53073 0
    endloop
  endfacet
  facet normal 0.700214 -0.139281 -0.700215
    outer loop
      vertex 4.6194 -1.91342 1
      vertex 3.69552 -1.53073 0
      vertex 4 0 0
    endloop
  endfacet
  facet normal 0.700215 -0.13928 -0.700215
    outer loop
      vertex 4.6194 -1.91342 1
      vertex 4 0 0
      vertex 5 0 1
    endloop
  endfacet
  facet normal 0.593617 -0.39664 -0.700211
    outer loop
      vertex 3.53553 -3.53553 1
      vertex 2.82843 -2.82843 0
      vertex 3.69552 -1.53073 0
    endloop
  endfacet
  facet normal -0.396642 -0.59361 -0.700216
    outer loop
      vertex -1.91342 -4.6194 1
      vertex -3.53553 -3.53553 1
      vertex -1.53073 -3.69552 0
    endloop
  endfacet
  facet normal -0.139281 0.700214 -0.700215
    outer loop
      vertex -1.53073 3.69552 0
      vertex -1.91342 4.6194 1
      vertex 0 4 0
    endloop
  endfacet
  facet normal -0.39664 0.593617 -0.700211
    outer loop
      vertex -2.82843 2.82843 0
      vertex -3.53553 3.53553 1
      vertex -1.53073 3.69552 0
    endloop
  endfacet
  facet normal -0.593617 0.39664 -0.700211
    outer loop
      vertex -2.82843 2.82843 0
      vertex -3.69552 1.53073 0
      vertex -3.53553 3.53553 1
    endloop
  endfacet
  facet normal 0.13928 0.700215 -0.700215
    outer loop
      vertex 1.91342 4.6194 1
      vertex 0 4 0
      vertex 0 5 1
    endloop
  endfacet
  facet normal -0.13928 -0.700215 -0.700215
    outer loop
      vertex 0 -5 1
      vertex -1.91342 -4.6194 1
      vertex 0 -4 0
    endloop
  endfacet
  facet normal 0.396642 -0.59361 -0.700216
    outer loop
      vertex 1.91342 -4.6194 1
      vertex 1.53073 -3.69552 0
      vertex 3.53553 -3.53553 1
    endloop
  endfacet
  facet normal 0.139281 -0.700214 -0.700215
    outer loop
      vertex 1.91342 -4.6194 1
      vertex 0 -4 0
      vertex 1.53073 -3.69552 0
    endloop
  endfacet
  facet normal -0.139281 -0.700214 -0.700215
    outer loop
      vertex 0 -4 0
      vertex -1.91342 -4.6194 1
      vertex -1.53073 -3.69552 0
    endloop
  endfacet
  facet normal -0.700214 0.139281 -0.700215
    outer loop
      vertex -4 0 0
      vertex -4.6194 1.91342 1
      vertex -3.69552 1.53073 0
    endloop
  endfacet
  facet normal -0.700214 -0.139281 -0.700215
    outer loop
      vertex -3.69552 -1.53073 0
      vertex -4.6194 -1.91342 1
      vertex -4 0 0
    endloop
  endfacet
  facet normal -0.13928 0.700215 -0.700215
    outer loop
      vertex 0 4 0
      vertex -1.91342 4.6194 1
      vertex 0 5 1
    endloop
  endfacet
  facet normal 0.396642 0.59361 -0.700216
    outer loop
      vertex 3.53553 3.53553 1
      vertex 1.53073 3.69552 0
      vertex 1.91342 4.6194 1
    endloop
  endfacet
  facet normal 0.59361 0.396642 -0.700216
    outer loop
      vertex 3.69552 1.53073 0
      vertex 3.53553 3.53553 1
      vertex 4.6194 1.91342 1
    endloop
  endfacet
  facet normal 0.139281 0.700214 -0.700215
    outer loop
      vertex 1.53073 3.69552 0
      vertex 0 4 0
      vertex 1.91342 4.6194 1
    endloop
  endfacet
  facet normal 0.39664 0.593617 -0.700211
    outer loop
      vertex 2.82843 2.82843 0
      vertex 1.53073 3.69552 0
      vertex 3.53553 3.53553 1
    endloop
  endfacet
  facet normal 0.593617 0.39664 -0.700211
    outer loop
      vertex 3.69552 1.53073 0
      vertex 2.82843 2.82843 0
      vertex 3.53553 3.53553 1
    endloop
  endfacet
  facet normal 0.700215 0.13928 0.700215
    outer loop
      vertex 4.6194 1.91342 4
      vertex 4 0 5
      vertex 5 0 4
    endloop
  endfacet
  facet normal -0.59361 -0.396642 0.700216
    outer loop
      vertex -3.69552 -1.53073 5
      vertex -4.6194 -1.91342 4
      vertex -3.53553 -3.53553 4
    endloop
  endfacet
  facet normal 0 0 1
    outer loop
      vertex 2.5 0 5
      vertex 4 0 5
      vertex 3.69552 1.53073 5
    endloop
  endfacet
  facet normal -0 0 1
    outer loop
      vertex 1.76777 1.76777 5
      vertex 3.69552 1.53073 5
      vertex 2.82843 2.82843 5
    endloop
  endfacet
  facet normal 0 0 1
    outer loop
      vertex 4 0 5
      vertex 2.5 0 5
      vertex 3.69552 -1.53073 5
    endloop
  endfacet
  facet normal 0 0 1
    outer loop
      vertex 1.76777 -1.76777 5
      vertex 3.69552 -1.53073 5
      vertex 2.5 0 5
    endloop
  endfacet
  facet normal 0 0 1
    outer loop
      vertex 3.69552 1.53073 5
      vertex 1.76777 1.76777 5
      vertex 2.5 0 5
    endloop
  endfacet
  facet normal 0 0 1
    outer loop
      vertex 1.53073 3.69552 5
      vertex 1.76777 1.76777 5
      vertex 2.82843 2.82843 5
    endloop
  endfacet
  facet normal 0 0 1
    outer loop
      vertex 0 2.5 5
      vertex 1.53073 3.69552 5
      vertex 0 4 5
    endloop
  endfacet
  facet normal 0 0 1
    outer loop
      vertex 1.53073 3.69552 5
      vertex 0 2.5 5
      vertex 1.76777 1.76777 5
    endloop
  endfacet
  facet normal -0 0 1
    outer loop
      vertex -1.53073 3.69552 5
      vertex 0 2.5 5
      vertex 0 4 5
    endloop
  endfacet
  facet normal 0 0 1
    outer loop
      vertex -1.53073 3.69552 5
      vertex -1.76777 1.76777 5
      vertex 0 2.5 5
    endloop
  endfacet
  facet normal -0 0 1
    outer loop
      vertex -2.82843 2.82843 5
      vertex -1.76777 1.76777 5
      vertex -1.53073 3.69552 5
    endloop
  endfacet
  facet normal 0 0 1
    outer loop
      vertex -3.69552 1.53073 5
      vertex -1.76777 1.76777 5
      vertex -2.82843 2.82843 5
    endloop
  endfacet
  facet normal 0 0 1
    outer loop
      vertex 3.69552 -1.53073 5
      vertex 1.76777 -1.76777 5
      vertex 2.82843 -2.82843 5
    endloop
  endfacet
  facet normal 0 0 1
    outer loop
      vertex 1.76777 -1.76777 5
      vertex 1.53073 -3.69552 5
      vertex 2.82843 -2.82843 5
    endloop
  endfacet
  facet normal -0 0 1
    outer loop
      vertex 0 -2.5 5
      vertex 1.53073 -3.69552 5
      vertex 1.76777 -1.76777 5
    endloop
  endfacet
  facet normal 0 0 1
    outer loop
      vertex 0 -2.5 5
      vertex 0 -4 5
      vertex 1.53073 -3.69552 5
    endloop
  endfacet
  facet normal 0 0 1
    outer loop
      vertex 0 -2.5 5
      vertex -1.53073 -3.69552 5
      vertex 0 -4 5
    endloop
  endfacet
  facet normal 0 0 1
    outer loop
      vertex -1.76777 -1.76777 5
      vertex -1.53073 -3.69552 5
      vertex 0 -2.5 5
    endloop
  endfacet
  facet normal -0 0 1
    outer loop
      vertex -3.69552 -1.53073 5
      vertex -1.76777 -1.76777 5
      vertex -2.5 0 5
    endloop
  endfacet
  facet normal 0 0 1
    outer loop
      vertex -1.76777 -1.76777 5
      vertex -2.82843 -2.82843 5
      vertex -1.53073 -3.69552 5
    endloop
  endfacet
  facet normal 0 0 1
    outer loop
      vertex -1.76777 1.76777 5
      vertex -3.69552 1.53073 5
      vertex -2.5 0 5
    endloop
  endfacet
  facet normal 0 0 1
    outer loop
      vertex -4 0 5
      vertex -2.5 0 5
      vertex -3.69552 1.53073 5
    endloop
  endfacet
  facet normal 0 0 1
    outer loop
      vertex -1.76777 -1.76777 5
      vertex -3.69552 -1.53073 5
      vertex -2.82843 -2.82843 5
    endloop
  endfacet
  facet normal 0 0 1
    outer loop
      vertex -2.5 0 5
      vertex -4 0 5
      vertex -3.69552 -1.53073 5
    endloop
  endfacet
  facet normal 0.139281 0.700214 0.700215
    outer loop
      vertex 1.91342 4.6194 4
      vertex 0 4 5
      vertex 1.53073 3.69552 5
    endloop
  endfacet
  facet normal -0.700214 -0.139281 0.700215
    outer loop
      vertex -4 0 5
      vertex -4.6194 -1.91342 4
      vertex -3.69552 -1.53073 5
    endloop
  endfacet
  facet normal -0.13928 0.700215 0.700215
    outer loop
      vertex 0 5 4
      vertex -1.91342 4.6194 4
      vertex 0 4 5
    endloop
  endfacet
  facet normal -0.593617 0.39664 0.700211
    outer loop
      vertex -3.53553 3.53553 4
      vertex -3.69552 1.53073 5
      vertex -2.82843 2.82843 5
    endloop
  endfacet
  facet normal 0.13928 -0.700215 0.700215
    outer loop
      vertex 0 -4 5
      vertex 0 -5 4
      vertex 1.91342 -4.6194 4
    endloop
  endfacet
  facet normal 0.700215 -0.13928 0.700215
    outer loop
      vertex 5 0 4
      vertex 4 0 5
      vertex 4.6194 -1.91342 4
    endloop
  endfacet
  facet normal -0.396642 -0.59361 0.700216
    outer loop
      vertex -1.53073 -3.69552 5
      vertex -3.53553 -3.53553 4
      vertex -1.91342 -4.6194 4
    endloop
  endfacet
  facet normal 0.59361 0.396642 0.700216
    outer loop
      vertex 4.6194 1.91342 4
      vertex 3.53553 3.53553 4
      vertex 3.69552 1.53073 5
    endloop
  endfacet
  facet normal -0.139281 -0.700214 0.700215
    outer loop
      vertex -1.53073 -3.69552 5
      vertex -1.91342 -4.6194 4
      vertex 0 -4 5
    endloop
  endfacet
  facet normal 0.13928 0.700215 0.700215
    outer loop
      vertex 0 5 4
      vertex 0 4 5
      vertex 1.91342 4.6194 4
    endloop
  endfacet
  facet normal 0.396642 -0.59361 0.700216
    outer loop
      vertex 3.53553 -3.53553 4
      vertex 1.53073 -3.69552 5
      vertex 1.91342 -4.6194 4
    endloop
  endfacet
  facet normal 0.593617 0.39664 0.700211
    outer loop
      vertex 3.53553 3.53553 4
      vertex 2.82843 2.82843 5
      vertex 3.69552 1.53073 5
    endloop
  endfacet
  facet normal 0.700214 0.139281 0.700215
    outer loop
      vertex 4.6194 1.91342 4
      vertex 3.69552 1.53073 5
      vertex 4 0 5
    endloop
  endfacet
  facet normal 0.396642 0.59361 0.700216
    outer loop
      vertex 1.91342 4.6194 4
      vertex 1.53073 3.69552 5
      vertex 3.53553 3.53553 4
    endloop
  endfacet
  facet normal -0.593617 -0.39664 0.700211
    outer loop
      vertex -2.82843 -2.82843 5
      vertex -3.69552 -1.53073 5
      vertex -3.53553 -3.53553 4
    endloop
  endfacet
  facet normal -0.139281 0.700214 0.700215
    outer loop
      vertex 0 4 5
      vertex -1.91342 4.6194 4
      vertex -1.53073 3.69552 5
    endloop
  endfacet
  facet normal -0.13928 -0.700215 0.700215
    outer loop
      vertex 0 -4 5
      vertex -1.91342 -4.6194 4
      vertex 0 -5 4
    endloop
  endfacet
  facet normal 0.139281 -0.700214 0.700215
    outer loop
      vertex 1.53073 -3.69552 5
      vertex 0 -4 5
      vertex 1.91342 -4.6194 4
    endloop
  endfacet
  facet normal -0.396642 0.59361 0.700216
    outer loop
      vertex -1.91342 4.6194 4
      vertex -3.53553 3.53553 4
      vertex -1.53073 3.69552 5
    endloop
  endfacet
  facet normal 0.59361 -0.396642 0.700216
    outer loop
      vertex 3.69552 -1.53073 5
      vertex 3.53553 -3.53553 4
      vertex 4.6194 -1.91342 4
    endloop
  endfacet
  facet normal 0.700214 -0.139281 0.700215
    outer loop
      vertex 4 0 5
      vertex 3.69552 -1.53073 5
      vertex 4.6194 -1.91342 4
    endloop
  endfacet
  facet normal -0.700214 0.139281 0.700215
    outer loop
      vertex -3.69552 1.53073 5
      vertex -4.6194 1.91342 4
      vertex -4 0 5
    endloop
  endfacet
  facet normal 0.39664 -0.593617 0.700211
    outer loop
      vertex 2.82843 -2.82843 5
      vertex 1.53073 -3.69552 5
      vertex 3.53553 -3.53553 4
    endloop
  endfacet
  facet normal 0.39664 0.593617 0.700211
    outer loop
      vertex 3.53553 3.53553 4
      vertex 1.53073 3.69552 5
      vertex 2.82843 2.82843 5
    endloop
  endfacet
  facet normal -0.59361 0.396642 0.700216
    outer loop
      vertex -3.53553 3.53553 4
      vertex -4.6194 1.91342 4
      vertex -3.69552 1.53073 5
    endloop
  endfacet
  facet normal -0.700215 0.13928 0.700215
    outer loop
      vertex -4.6194 1.91342 4
      vertex -5 0 4
      vertex -4 0 5
    endloop
  endfacet
  facet normal -0.39664 0.593617 0.700211
    outer loop
      vertex -1.53073 3.69552 5
      vertex -3.53553 3.53553 4
      vertex -2.82843 2.82843 5
    endloop
  endfacet
  facet normal 0.593617 -0.39664 0.700211
    outer loop
      vertex 3.69552 -1.53073 5
      vertex 2.82843 -2.82843 5
      vertex 3.53553 -3.53553 4
    endloop
  endfacet
  facet normal -0.700215 -0.13928 0.700215
    outer loop
      vertex -4 0 5
      vertex -5 0 4
      vertex -4.6194 -1.91342 4
    endloop
  endfacet
  facet normal -0.39664 -0.593617 0.700211
    outer loop
      vertex -2.82843 -2.82843 5
      vertex -3.53553 -3.53553 4
      vertex -1.53073 -3.69552 5
    endloop
  endfacet
  facet normal 0.92388 0.382682 0
    outer loop
      vertex -1.76777 -1.76777 5
      vertex -2.5 0 0
      vertex -2.5 0 5
    endloop
  endfacet
  facet normal 0.92388 0.382682 0
    outer loop
      vertex -2.5 0 0
      vertex -1.76777 -1.76777 5
      vertex -1.76777 -1.76777 0
    endloop
  endfacet
  facet normal -0.382682 -0.92388 0
    outer loop
      vertex 0 2.5 0
      vertex 1.76777 1.76777 5
      vertex 0 2.5 5
    endloop
  endfacet
  facet normal -0.382682 -0.92388 -0
    outer loop
      vertex 1.76777 1.76777 5
      vertex 0 2.5 0
      vertex 1.76777 1.76777 0
    endloop
  endfacet
  facet normal -0.92388 -0.382682 0
    outer loop
      vertex 2.5 0 0
      vertex 1.76777 1.76777 5
      vertex 1.76777 1.76777 0
    endloop
  endfacet
  facet normal -0.92388 -0.382682 0
    outer loop
      vertex 1.76777 1.76777 5
      vertex 2.5 0 0
      vertex 2.5 0 5
    endloop
  endfacet
  facet normal -0.92388 0.382682 0
    outer loop
      vertex 1.76777 -1.76777 0
      vertex 2.5 0 5
      vertex 2.5 0 0
    endloop
  endfacet
  facet normal -0.92388 0.382682 0
    outer loop
      vertex 2.5 0 5
      vertex 1.76777 -1.76777 0
      vertex 1.76777 -1.76777 5
    endloop
  endfacet
  facet normal 0.382682 0.92388 -0
    outer loop
      vertex 0 -2.5 0
      vertex -1.76777 -1.76777 5
      vertex 0 -2.5 5
    endloop
  endfacet
  facet normal 0.382682 0.92388 0
    outer loop
      vertex -1.76777 -1.76777 5
      vertex 0 -2.5 0
      vertex -1.76777 -1.76777 0
    endloop
  endfacet
  facet normal 0.92388 -0.382682 0
    outer loop
      vertex -2.5 0 5
      vertex -1.76777 1.76777 0
      vertex -1.76777 1.76777 5
    endloop
  endfacet
  facet normal 0.92388 -0.382682 0
    outer loop
      vertex -1.76777 1.76777 0
      vertex -2.5 0 5
      vertex -2.5 0 0
    endloop
  endfacet
  facet normal -0.382682 0.92388 0
    outer loop
      vertex 1.76777 -1.76777 0
      vertex 0 -2.5 5
      vertex 1.76777 -1.76777 5
    endloop
  endfacet
  facet normal -0.382682 0.92388 0
    outer loop
      vertex 0 -2.5 5
      vertex 1.76777 -1.76777 0
      vertex 0 -2.5 0
    endloop
  endfacet
  facet normal 0.382682 -0.92388 0
    outer loop
      vertex -1.76777 1.76777 0
      vertex 0 2.5 5
      vertex -1.76777 1.76777 5
    endloop
  endfacet
  facet normal 0.382682 -0.92388 0
    outer loop
      vertex 0 2.5 5
      vertex -1.76777 1.76777 0
      vertex 0 2.5 0
    endloop
  endfacet
endsolid OpenSCAD_Model
