solid OpenSCAD_Model
  facet normal 1 -0 0
    outer loop
      vertex 42 0 10
      vertex 42 42 0
      vertex 42 42 10
    endloop
  endfacet
  facet normal 1 0 0
    outer loop
      vertex 42 42 0
      vertex 42 0 10
      vertex 42 0 0
    endloop
  endfacet
  facet normal 0 0 1
    outer loop
      vertex 42 42 10
      vertex 32 21 10
      vertex 42 0 10
    endloop
  endfacet
  facet normal 0 0 1
    outer loop
      vertex 42 42 10
      vertex 31.7596 23.287 10
      vertex 32 21 10
    endloop
  endfacet
  facet normal 0 0 1
    outer loop
      vertex 42 42 10
      vertex 31.049 25.4741 10
      vertex 31.7596 23.287 10
    endloop
  endfacet
  facet normal 0 0 1
    outer loop
      vertex 42 42 10
      vertex 29.8992 27.4656 10
      vertex 31.049 25.4741 10
    endloop
  endfacet
  facet normal 0 0 1
    outer loop
      vertex 42 42 10
      vertex 28.3604 29.1746 10
      vertex 29.8992 27.4656 10
    endloop
  endfacet
  facet normal 0 0 1
    outer loop
      vertex 42 42 10
      vertex 26.5 30.5263 10
      vertex 28.3604 29.1746 10
    endloop
  endfacet
  facet normal 0 0 1
    outer loop
      vertex 42 42 10
      vertex 24.3992 31.4616 10
      vertex 26.5 30.5263 10
    endloop
  endfacet
  facet normal 0 0 1
    outer loop
      vertex 42 42 10
      vertex 22.1498 31.9397 10
      vertex 24.3992 31.4616 10
    endloop
  endfacet
  facet normal 0 0 1
    outer loop
      vertex 42 42 10
      vertex 19.8502 31.9397 10
      vertex 22.1498 31.9397 10
    endloop
  endfacet
  facet normal -0 0 1
    outer loop
      vertex 0 42 10
      vertex 19.8502 31.9397 10
      vertex 42 42 10
    endloop
  endfacet
  facet normal 0 0 1
    outer loop
      vertex 10.2404 23.287 10
      vertex 0 42 10
      vertex 10 21 10
    endloop
  endfacet
  facet normal 0 0 1
    outer loop
      vertex 10.951 25.4741 10
      vertex 0 42 10
      vertex 10.2404 23.287 10
    endloop
  endfacet
  facet normal 0 0 1
    outer loop
      vertex 12.1008 27.4656 10
      vertex 0 42 10
      vertex 10.951 25.4741 10
    endloop
  endfacet
  facet normal 0 0 1
    outer loop
      vertex 13.6396 29.1746 10
      vertex 0 42 10
      vertex 12.1008 27.4656 10
    endloop
  endfacet
  facet normal 0 0 1
    outer loop
      vertex 15.5 30.5263 10
      vertex 0 42 10
      vertex 13.6396 29.1746 10
    endloop
  endfacet
  facet normal 0 0 1
    outer loop
      vertex 17.6008 31.4616 10
      vertex 0 42 10
      vertex 15.5 30.5263 10
    endloop
  endfacet
  facet normal 0 0 1
    outer loop
      vertex 19.8502 31.9397 10
      vertex 0 42 10
      vertex 17.6008 31.4616 10
    endloop
  endfacet
  facet normal -0 0 1
    outer loop
      vertex 31.7596 18.713 10
      vertex 42 0 10
      vertex 32 21 10
    endloop
  endfacet
  facet normal -0 0 1
    outer loop
      vertex 31.049 16.5259 10
      vertex 42 0 10
      vertex 31.7596 18.713 10
    endloop
  endfacet
  facet normal -0 0 1
    outer loop
      vertex 29.8992 14.5344 10
      vertex 42 0 10
      vertex 31.049 16.5259 10
    endloop
  endfacet
  facet normal -0 0 1
    outer loop
      vertex 28.3604 12.8254 10
      vertex 42 0 10
      vertex 29.8992 14.5344 10
    endloop
  endfacet
  facet normal -0 0 1
    outer loop
      vertex 26.5 11.4737 10
      vertex 42 0 10
      vertex 28.3604 12.8254 10
    endloop
  endfacet
  facet normal -0 0 1
    outer loop
      vertex 24.3992 10.5384 10
      vertex 42 0 10
      vertex 26.5 11.4737 10
    endloop
  endfacet
  facet normal -0 0 1
    outer loop
      vertex 22.1498 10.0603 10
      vertex 42 0 10
      vertex 24.3992 10.5384 10
    endloop
  endfacet
  facet normal -0 0 1
    outer loop
      vertex 19.8502 10.0603 10
      vertex 42 0 10
      vertex 22.1498 10.0603 10
    endloop
  endfacet
  facet normal 0 0 1
    outer loop
      vertex 0 0 10
      vertex 19.8502 10.0603 10
      vertex 17.6008 10.5384 10
    endloop
  endfacet
  facet normal 0 0 1
    outer loop
      vertex 0 0 10
      vertex 10 21 10
      vertex 0 42 10
    endloop
  endfacet
  facet normal 0 0 1
    outer loop
      vertex 10 21 10
      vertex 0 0 10
      vertex 10.2404 18.713 10
    endloop
  endfacet
  facet normal 0 0 1
    outer loop
      vertex 19.8502 10.0603 10
      vertex 0 0 10
      vertex 42 0 10
    endloop
  endfacet
  facet normal 0 0 1
    outer loop
      vertex 15.5 11.4737 10
      vertex 0 0 10
      vertex 17.6008 10.5384 10
    endloop
  endfacet
  facet normal 0 0 1
    outer loop
      vertex 13.6396 12.8254 10
      vertex 0 0 10
      vertex 15.5 11.4737 10
    endloop
  endfacet
  facet normal 0 0 1
    outer loop
      vertex 12.1008 14.5344 10
      vertex 0 0 10
      vertex 13.6396 12.8254 10
    endloop
  endfacet
  facet normal 0 0 1
    outer loop
      vertex 10.951 16.5259 10
      vertex 0 0 10
      vertex 12.1008 14.5344 10
    endloop
  endfacet
  facet normal 0 0 1
    outer loop
      vertex 10.2404 18.713 10
      vertex 0 0 10
      vertex 10.951 16.5259 10
    endloop
  endfacet
  facet normal 0 0 -1
    outer loop
      vertex 42 0 0
      vertex 32 21 0
      vertex 42 42 0
    endloop
  endfacet
  facet normal 0 0 -1
    outer loop
      vertex 42 0 0
      vertex 31.7596 18.713 0
      vertex 32 21 0
    endloop
  endfacet
  facet normal 0 0 -1
    outer loop
      vertex 42 0 0
      vertex 31.049 16.5259 0
      vertex 31.7596 18.713 0
    endloop
  endfacet
  facet normal 0 0 -1
    outer loop
      vertex 42 0 0
      vertex 29.8992 14.5344 0
      vertex 31.049 16.5259 0
    endloop
  endfacet
  facet normal 0 0 -1
    outer loop
      vertex 42 0 0
      vertex 28.3604 12.8254 0
      vertex 29.8992 14.5344 0
    endloop
  endfacet
  facet normal 0 0 -1
    outer loop
      vertex 42 0 0
      vertex 26.5 11.4737 0
      vertex 28.3604 12.8254 0
    endloop
  endfacet
  facet normal 0 0 -1
    outer loop
      vertex 42 0 0
      vertex 24.3992 10.5384 0
      vertex 26.5 11.4737 0
    endloop
  endfacet
  facet normal 0 0 -1
    outer loop
      vertex 42 0 0
      vertex 22.1498 10.0603 0
      vertex 24.3992 10.5384 0
    endloop
  endfacet
  facet normal 0 0 -1
    outer loop
      vertex 42 0 0
      vertex 19.8502 10.0603 0
      vertex 22.1498 10.0603 0
    endloop
  endfacet
  facet normal 0 0 -1
    outer loop
      vertex 0 0 0
      vertex 19.8502 10.0603 0
      vertex 42 0 0
    endloop
  endfacet
  facet normal -0 0 -1
    outer loop
      vertex 10.2404 18.713 0
      vertex 0 0 0
      vertex 10 21 0
    endloop
  endfacet
  facet normal -0 0 -1
    outer loop
      vertex 10.951 16.5259 0
      vertex 0 0 0
      vertex 10.2404 18.713 0
    endloop
  endfacet
  facet normal -0 0 -1
    outer loop
      vertex 12.1008 14.5344 0
      vertex 0 0 0
      vertex 10.951 16.5259 0
    endloop
  endfacet
  facet normal -0 0 -1
    outer loop
      vertex 13.6396 12.8254 0
      vertex 0 0 0
      vertex 12.1008 14.5344 0
    endloop
  endfacet
  facet normal -0 0 -1
    outer loop
      vertex 15.5 11.4737 0
      vertex 0 0 0
      vertex 13.6396 12.8254 0
    endloop
  endfacet
  facet normal -0 0 -1
    outer loop
      vertex 17.6008 10.5384 0
      vertex 0 0 0
      vertex 15.5 11.4737 0
    endloop
  endfacet
  facet normal -0 0 -1
    outer loop
      vertex 19.8502 10.0603 0
      vertex 0 0 0
      vertex 17.6008 10.5384 0
    endloop
  endfacet
  facet normal 0 0 -1
    outer loop
      vertex 31.7596 23.287 0
      vertex 42 42 0
      vertex 32 21 0
    endloop
  endfacet
  facet normal 0 0 -1
    outer loop
      vertex 31.049 25.4741 0
      vertex 42 42 0
      vertex 31.7596 23.287 0
    endloop
  endfacet
  facet normal 0 0 -1
    outer loop
      vertex 29.8992 27.4656 0
      vertex 42 42 0
      vertex 31.049 25.4741 0
    endloop
  endfacet
  facet normal 0 0 -1
    outer loop
      vertex 28.3604 29.1746 0
      vertex 42 42 0
      vertex 29.8992 27.4656 0
    endloop
  endfacet
  facet normal 0 0 -1
    outer loop
      vertex 26.5 30.5263 0
      vertex 42 42 0
      vertex 28.3604 29.1746 0
    endloop
  endfacet
  facet normal 0 0 -1
    outer loop
      vertex 24.3992 31.4616 0
      vertex 42 42 0
      vertex 26.5 30.5263 0
    endloop
  endfacet
  facet normal 0 0 -1
    outer loop
      vertex 22.1498 31.9397 0
      vertex 42 42 0
      vertex 24.3992 31.4616 0
    endloop
  endfacet
  facet normal 0 0 -1
    outer loop
      vertex 19.8502 31.9397 0
      vertex 42 42 0
      vertex 22.1498 31.9397 0
    endloop
  endfacet
  facet normal 0 0 -1
    outer loop
      vertex 0 42 0
      vertex 19.8502 31.9397 0
      vertex 17.6008 31.4616 0
    endloop
  endfacet
  facet normal 0 0 -1
    outer loop
      vertex 0 42 0
      vertex 10 21 0
      vertex 0 0 0
    endloop
  endfacet
  facet normal 0 0 -1
    outer loop
      vertex 10 21 0
      vertex 0 42 0
      vertex 10.2404 23.287 0
    endloop
  endfacet
  facet normal 0 0 -1
    outer loop
      vertex 19.8502 31.9397 0
      vertex 0 42 0
      vertex 42 42 0
    endloop
  endfacet
  facet normal 0 0 -1
    outer loop
      vertex 15.5 30.5263 0
      vertex 0 42 0
      vertex 17.6008 31.4616 0
    endloop
  endfacet
  facet normal 0 0 -1
    outer loop
      vertex 13.6396 29.1746 0
      vertex 0 42 0
      vertex 15.5 30.5263 0
    endloop
  endfacet
  facet normal 0 0 -1
    outer loop
      vertex 12.1008 27.4656 0
      vertex 0 42 0
      vertex 13.6396 29.1746 0
    endloop
  endfacet
  facet normal 0 0 -1
    outer loop
      vertex 10.951 25.4741 0
      vertex 0 42 0
      vertex 12.1008 27.4656 0
    endloop
  endfacet
  facet normal 0 0 -1
    outer loop
      vertex 10.2404 23.287 0
      vertex 0 42 0
      vertex 10.951 25.4741 0
    endloop
  endfacet
  facet normal -1 0 0
    outer loop
      vertex 0 0 0
      vertex 0 42 10
      vertex 0 42 0
    endloop
  endfacet
  facet normal -1 -0 0
    outer loop
      vertex 0 42 10
      vertex 0 0 0
      vertex 0 0 10
    endloop
  endfacet
  facet normal 0 1 -0
    outer loop
      vertex 42 42 0
      vertex 0 42 10
      vertex 42 42 10
    endloop
  endfacet
  facet normal 0 1 0
    outer loop
      vertex 0 42 10
      vertex 42 42 0
      vertex 0 42 0
    endloop
  endfacet
  facet normal 0 -1 0
    outer loop
      vertex 0 0 0
      vertex 42 0 10
      vertex 0 0 10
    endloop
  endfacet
  facet normal 0 -1 -0
    outer loop
      vertex 42 0 10
      vertex 0 0 0
      vertex 42 0 0
    endloop
  endfacet
  facet normal -0.951061 -0.309004 0
    outer loop
      vertex 31.7596 23.287 0
      vertex 31.049 25.4741 10
      vertex 31.049 25.4741 0
    endloop
  endfacet
  facet normal -0.951061 -0.309004 0
    outer loop
      vertex 31.049 25.4741 10
      vertex 31.7596 23.287 0
      vertex 31.7596 23.287 10
    endloop
  endfacet
  facet normal -0.994521 -0.10454 0
    outer loop
      vertex 32 21 0
      vertex 31.7596 23.287 10
      vertex 31.7596 23.287 0
    endloop
  endfacet
  facet normal -0.994521 -0.10454 0
    outer loop
      vertex 31.7596 23.287 10
      vertex 32 21 0
      vertex 32 21 10
    endloop
  endfacet
  facet normal -0.866024 -0.500002 0
    outer loop
      vertex 31.049 25.4741 0
      vertex 29.8992 27.4656 10
      vertex 29.8992 27.4656 0
    endloop
  endfacet
  facet normal -0.866024 -0.500002 0
    outer loop
      vertex 29.8992 27.4656 10
      vertex 31.049 25.4741 0
      vertex 31.049 25.4741 10
    endloop
  endfacet
  facet normal 0.743143 0.669133 0
    outer loop
      vertex 13.6396 12.8254 10
      vertex 12.1008 14.5344 0
      vertex 12.1008 14.5344 10
    endloop
  endfacet
  facet normal 0.743143 0.669133 0
    outer loop
      vertex 12.1008 14.5344 0
      vertex 13.6396 12.8254 10
      vertex 13.6396 12.8254 0
    endloop
  endfacet
  facet normal 0.587797 0.809009 -0
    outer loop
      vertex 15.5 11.4737 0
      vertex 13.6396 12.8254 10
      vertex 15.5 11.4737 10
    endloop
  endfacet
  facet normal 0.587797 0.809009 0
    outer loop
      vertex 13.6396 12.8254 10
      vertex 15.5 11.4737 0
      vertex 13.6396 12.8254 0
    endloop
  endfacet
  facet normal -0.994521 0.10454 0
    outer loop
      vertex 31.7596 18.713 0
      vertex 32 21 10
      vertex 32 21 0
    endloop
  endfacet
  facet normal -0.994521 0.10454 0
    outer loop
      vertex 32 21 10
      vertex 31.7596 18.713 0
      vertex 31.7596 18.713 10
    endloop
  endfacet
  facet normal 0.994521 -0.10454 0
    outer loop
      vertex 10 21 10
      vertex 10.2404 23.287 0
      vertex 10.2404 23.287 10
    endloop
  endfacet
  facet normal 0.994521 -0.10454 0
    outer loop
      vertex 10.2404 23.287 0
      vertex 10 21 10
      vertex 10 21 0
    endloop
  endfacet
  facet normal -0.587797 -0.809009 0
    outer loop
      vertex 26.5 30.5263 0
      vertex 28.3604 29.1746 10
      vertex 26.5 30.5263 10
    endloop
  endfacet
  facet normal -0.587797 -0.809009 -0
    outer loop
      vertex 28.3604 29.1746 10
      vertex 26.5 30.5263 0
      vertex 28.3604 29.1746 0
    endloop
  endfacet
  facet normal 0.207901 0.97815 -0
    outer loop
      vertex 19.8502 10.0603 0
      vertex 17.6008 10.5384 10
      vertex 19.8502 10.0603 10
    endloop
  endfacet
  facet normal 0.207901 0.97815 0
    outer loop
      vertex 17.6008 10.5384 10
      vertex 19.8502 10.0603 0
      vertex 17.6008 10.5384 0
    endloop
  endfacet
  facet normal -0.866024 0.500002 0
    outer loop
      vertex 29.8992 14.5344 0
      vertex 31.049 16.5259 10
      vertex 31.049 16.5259 0
    endloop
  endfacet
  facet normal -0.866024 0.500002 0
    outer loop
      vertex 31.049 16.5259 10
      vertex 29.8992 14.5344 0
      vertex 29.8992 14.5344 10
    endloop
  endfacet
  facet normal -0.207901 -0.97815 0
    outer loop
      vertex 22.1498 31.9397 0
      vertex 24.3992 31.4616 10
      vertex 22.1498 31.9397 10
    endloop
  endfacet
  facet normal -0.207901 -0.97815 -0
    outer loop
      vertex 24.3992 31.4616 10
      vertex 22.1498 31.9397 0
      vertex 24.3992 31.4616 0
    endloop
  endfacet
  facet normal -0.951061 0.309004 0
    outer loop
      vertex 31.049 16.5259 0
      vertex 31.7596 18.713 10
      vertex 31.7596 18.713 0
    endloop
  endfacet
  facet normal -0.951061 0.309004 0
    outer loop
      vertex 31.7596 18.713 10
      vertex 31.049 16.5259 0
      vertex 31.049 16.5259 10
    endloop
  endfacet
  facet normal -0.406723 -0.913551 0
    outer loop
      vertex 24.3992 31.4616 0
      vertex 26.5 30.5263 10
      vertex 24.3992 31.4616 10
    endloop
  endfacet
  facet normal -0.406723 -0.913551 -0
    outer loop
      vertex 26.5 30.5263 10
      vertex 24.3992 31.4616 0
      vertex 26.5 30.5263 0
    endloop
  endfacet
  facet normal -0.743143 0.669133 0
    outer loop
      vertex 28.3604 12.8254 0
      vertex 29.8992 14.5344 10
      vertex 29.8992 14.5344 0
    endloop
  endfacet
  facet normal -0.743143 0.669133 0
    outer loop
      vertex 29.8992 14.5344 10
      vertex 28.3604 12.8254 0
      vertex 28.3604 12.8254 10
    endloop
  endfacet
  facet normal 0 -1 0
    outer loop
      vertex 19.8502 31.9397 0
      vertex 22.1498 31.9397 10
      vertex 19.8502 31.9397 10
    endloop
  endfacet
  facet normal 0 -1 -0
    outer loop
      vertex 22.1498 31.9397 10
      vertex 19.8502 31.9397 0
      vertex 22.1498 31.9397 0
    endloop
  endfacet
  facet normal 0.951061 -0.309004 0
    outer loop
      vertex 10.2404 23.287 10
      vertex 10.951 25.4741 0
      vertex 10.951 25.4741 10
    endloop
  endfacet
  facet normal 0.951061 -0.309004 0
    outer loop
      vertex 10.951 25.4741 0
      vertex 10.2404 23.287 10
      vertex 10.2404 23.287 0
    endloop
  endfacet
  facet normal 0.406723 0.913551 -0
    outer loop
      vertex 17.6008 10.5384 0
      vertex 15.5 11.4737 10
      vertex 17.6008 10.5384 10
    endloop
  endfacet
  facet normal 0.406723 0.913551 0
    outer loop
      vertex 15.5 11.4737 10
      vertex 17.6008 10.5384 0
      vertex 15.5 11.4737 0
    endloop
  endfacet
  facet normal 0.587797 -0.809009 0
    outer loop
      vertex 13.6396 29.1746 0
      vertex 15.5 30.5263 10
      vertex 13.6396 29.1746 10
    endloop
  endfacet
  facet normal 0.587797 -0.809009 0
    outer loop
      vertex 15.5 30.5263 10
      vertex 13.6396 29.1746 0
      vertex 15.5 30.5263 0
    endloop
  endfacet
  facet normal -0.587797 0.809009 0
    outer loop
      vertex 28.3604 12.8254 0
      vertex 26.5 11.4737 10
      vertex 28.3604 12.8254 10
    endloop
  endfacet
  facet normal -0.587797 0.809009 0
    outer loop
      vertex 26.5 11.4737 10
      vertex 28.3604 12.8254 0
      vertex 26.5 11.4737 0
    endloop
  endfacet
  facet normal 0.743143 -0.669133 0
    outer loop
      vertex 12.1008 27.4656 10
      vertex 13.6396 29.1746 0
      vertex 13.6396 29.1746 10
    endloop
  endfacet
  facet normal 0.743143 -0.669133 0
    outer loop
      vertex 13.6396 29.1746 0
      vertex 12.1008 27.4656 10
      vertex 12.1008 27.4656 0
    endloop
  endfacet
  facet normal -0.743143 -0.669133 0
    outer loop
      vertex 29.8992 27.4656 0
      vertex 28.3604 29.1746 10
      vertex 28.3604 29.1746 0
    endloop
  endfacet
  facet normal -0.743143 -0.669133 0
    outer loop
      vertex 28.3604 29.1746 10
      vertex 29.8992 27.4656 0
      vertex 29.8992 27.4656 10
    endloop
  endfacet
  facet normal 0.951061 0.309004 0
    outer loop
      vertex 10.951 16.5259 10
      vertex 10.2404 18.713 0
      vertex 10.2404 18.713 10
    endloop
  endfacet
  facet normal 0.951061 0.309004 0
    outer loop
      vertex 10.2404 18.713 0
      vertex 10.951 16.5259 10
      vertex 10.951 16.5259 0
    endloop
  endfacet
  facet normal 0.406723 -0.913551 0
    outer loop
      vertex 15.5 30.5263 0
      vertex 17.6008 31.4616 10
      vertex 15.5 30.5263 10
    endloop
  endfacet
  facet normal 0.406723 -0.913551 0
    outer loop
      vertex 17.6008 31.4616 10
      vertex 15.5 30.5263 0
      vertex 17.6008 31.4616 0
    endloop
  endfacet
  facet normal 0.866024 0.500002 0
    outer loop
      vertex 12.1008 14.5344 10
      vertex 10.951 16.5259 0
      vertex 10.951 16.5259 10
    endloop
  endfacet
  facet normal 0.866024 0.500002 0
    outer loop
      vertex 10.951 16.5259 0
      vertex 12.1008 14.5344 10
      vertex 12.1008 14.5344 0
    endloop
  endfacet
  facet normal 0.866024 -0.500002 0
    outer loop
      vertex 10.951 25.4741 10
      vertex 12.1008 27.4656 0
      vertex 12.1008 27.4656 10
    endloop
  endfacet
  facet normal 0.866024 -0.500002 0
    outer loop
      vertex 12.1008 27.4656 0
      vertex 10.951 25.4741 10
      vertex 10.951 25.4741 0
    endloop
  endfacet
  facet normal 0 1 -0
    outer loop
      vertex 22.1498 10.0603 0
      vertex 19.8502 10.0603 10
      vertex 22.1498 10.0603 10
    endloop
  endfacet
  facet normal 0 1 0
    outer loop
      vertex 19.8502 10.0603 10
      vertex 22.1498 10.0603 0
      vertex 19.8502 10.0603 0
    endloop
  endfacet
  facet normal -0.207901 0.97815 0
    outer loop
      vertex 24.3992 10.5384 0
      vertex 22.1498 10.0603 10
      vertex 24.3992 10.5384 10
    endloop
  endfacet
  facet normal -0.207901 0.97815 0
    outer loop
      vertex 22.1498 10.0603 10
      vertex 24.3992 10.5384 0
      vertex 22.1498 10.0603 0
    endloop
  endfacet
  facet normal 0.994521 0.10454 0
    outer loop
      vertex 10.2404 18.713 10
      vertex 10 21 0
      vertex 10 21 10
    endloop
  endfacet
  facet normal 0.994521 0.10454 0
    outer loop
      vertex 10 21 0
      vertex 10.2404 18.713 10
      vertex 10.2404 18.713 0
    endloop
  endfacet
  facet normal -0.406723 0.913551 0
    outer loop
      vertex 26.5 11.4737 0
      vertex 24.3992 10.5384 10
      vertex 26.5 11.4737 10
    endloop
  endfacet
  facet normal -0.406723 0.913551 0
    outer loop
      vertex 24.3992 10.5384 10
      vertex 26.5 11.4737 0
      vertex 24.3992 10.5384 0
    endloop
  endfacet
  facet normal 0.207901 -0.97815 0
    outer loop
      vertex 17.6008 31.4616 0
      vertex 19.8502 31.9397 10
      vertex 17.6008 31.4616 10
    endloop
  endfacet
  facet normal 0.207901 -0.97815 0
    outer loop
      vertex 19.8502 31.9397 10
      vertex 17.6008 31.4616 0
      vertex 19.8502 31.9397 0
    endloop
  endfacet
endsolid OpenSCAD_Model
